<!-- <svg  width="24" height="25" viewBox="0 0 24 25" fill="none" xmlns="http://www.w3.org/2000/svg">
<path d="M14.4107 17.4874C13.5963 17.8656 12.6923 18.1118 11.7405 18.1118C8.15598 18.1118 5.25017 14.6207 5.25017 13.7336C5.25017 13.2308 6.18382 11.8913 7.64549 10.8252M17.452 15.1367C17.9487 14.5391 18.2308 14.01 18.2308 13.7336C18.2308 12.8466 15.325 9.35549 11.7405 9.35549C13.3177 9.35549 14.5962 10.6238 14.5962 12.1884M11.7405 15.0213C10.1633 15.0213 8.88472 13.753 8.88472 12.1884M18.75 9.35557C16.7732 7.7195 14.4653 6.7802 12.0001 6.7802C11.1116 6.7802 10.2435 6.90222 9.40397 7.13492M5.25017 9.35557C5.43341 9.20392 5.6195 9.05825 5.8083 8.91876M5.25 5.75L17.7856 18.4061" stroke="#070721" stroke-linecap="round"/>
</svg> -->

<svg width="24" height="24" viewBox="0 0 24 24" fill="none" xmlns="http://www.w3.org/2000/svg">
  <path d="M14.4107 16.9874C13.5963 17.3656 12.6923 17.6118 11.7405 17.6118C8.15598 17.6118 5.25017 14.1207 5.25017 13.2337C5.25017 12.7308 6.18382 11.3914 7.6455 10.3253M17.452 14.6368C17.9487 14.0392 18.2308 13.51 18.2308 13.2337C18.2308 12.3466 15.325 8.85553 11.7405 8.85553C13.3177 8.85553 14.5962 10.1239 14.5962 11.6884M11.7405 14.5214C10.1633 14.5214 8.88472 13.253 8.88472 11.6884M18.75 8.85562C16.7732 7.21954 14.4653 6.28025 12.0001 6.28025C11.1116 6.28025 10.2435 6.40227 9.40397 6.63496M5.25017 8.85562C5.43341 8.70396 5.6195 8.5583 5.8083 8.41881M5.25 5.25005L17.7856 17.9062" stroke="#070721" stroke-linecap="round" />
</svg>
