<svg width="25" height="25" viewBox="0 0 25 25" fill="none" xmlns="http://www.w3.org/2000/svg">
<path d="M12.4971 4.4043C13.7607 4.4043 14.9206 4.52521 15.8398 4.66504C17.0036 4.84206 17.916 5.6396 18.1758 6.75391C18.4894 8.09915 18.7969 10.1457 18.7441 12.8945C18.6859 15.9276 18.2432 18.1159 17.8164 19.5439C17.701 19.9299 17.4339 20.1286 17.1318 20.1797C16.816 20.233 16.4263 20.1279 16.1094 19.8125C15.5326 19.2383 14.8719 18.6181 14.2627 18.1387C13.9586 17.8994 13.6558 17.686 13.375 17.5303C13.1101 17.3834 12.7995 17.25 12.4971 17.25C12.1993 17.25 11.8783 17.3812 11.5977 17.5254C11.2986 17.679 10.9675 17.8898 10.6289 18.1289C9.95038 18.608 9.19895 19.2287 8.53711 19.8037C8.18779 20.1072 7.77644 20.179 7.45215 20.0908C7.13917 20.0056 6.87522 19.7652 6.79395 19.3467C6.51488 17.9087 6.25 15.7848 6.25 12.9043C6.25 10.0308 6.54615 8.00399 6.84082 6.69922C7.08505 5.61786 7.9671 4.84804 9.10156 4.67285C10.0289 4.52964 11.2091 4.4043 12.4971 4.4043Z" stroke="#374F42" stroke-linecap="round" stroke-linejoin="round"/>
</svg>
