<svg width="166" height="46" viewBox="0 0 166 46" fill="none" xmlns="http://www.w3.org/2000/svg">
<path d="M146.393 12.1609C147.018 12.0918 147.705 12.0981 148.334 12.1448C150.786 12.3273 152.565 13.4125 154.137 15.2489C154.09 14.326 154.037 13.4163 154.09 12.4921C155.144 12.4222 156.21 12.4553 157.267 12.4582L157.265 25.4933C157.27 28.1065 157.5 30.9201 157.048 33.4926C156.788 34.9779 156.267 36.4376 155.344 37.644C154.089 39.2862 152.505 39.9622 150.503 40.2193C151.226 39.3571 151.919 38.4826 152.496 37.5154C154 34.3539 154.024 31.2765 154.068 27.8597C152.75 29.4234 151.354 30.4748 149.304 30.8558C146.886 31.302 144.39 30.7716 142.363 29.38C140.391 28.0138 139.07 25.7382 138.661 23.3944C138.21 20.8134 138.727 18.0227 140.245 15.8692C141.763 13.7152 143.843 12.6092 146.393 12.1609ZM149.25 27.716C152.627 27.0183 154.795 23.7074 154.083 20.3322C153.372 16.9576 150.053 14.8037 146.68 15.5285C143.328 16.2493 141.188 19.5456 141.895 22.9019C142.603 26.2572 145.891 28.41 149.25 27.716Z" fill="#649179"/>
<path d="M97.8881 12.1129C103.113 11.3291 107.984 14.9347 108.761 20.1616C109.537 25.3889 105.923 30.2541 100.695 31.0227C95.4782 31.7895 90.6253 28.1855 89.851 22.9695C89.0767 17.753 92.6731 12.895 97.8881 12.1129ZM100.376 27.7553C103.789 27.1389 106.043 23.8592 105.397 20.4528C104.751 17.0468 101.451 14.821 98.0507 15.4972C94.6925 16.1652 92.501 19.4147 93.1392 22.7786C93.7773 26.1424 97.0069 28.3632 100.376 27.7553Z" fill="#649179"/>
<path d="M67.1369 12.1531C67.8798 12.1188 68.6526 12.0819 69.3885 12.2073C71.4819 12.5644 72.575 13.8093 73.7286 15.4527C74.0531 14.9234 74.4288 14.4157 74.8633 13.9714C76.0562 12.7512 77.7037 12.1346 79.3984 12.1258C81.2194 12.1162 83.0419 12.5791 84.357 13.9058C85.1644 14.7357 85.7298 15.7704 85.9935 16.8982C86.4568 18.8231 86.2583 21.0217 86.2564 22.9995L86.2621 30.2983L82.9549 30.2898L82.9493 23.2529C82.9502 21.6495 83.0967 19.8739 82.7696 18.2994C82.6382 17.6688 82.3886 17.092 81.9613 16.6049C81.3078 15.8597 80.2175 15.3634 79.2289 15.3344C78.0319 15.2991 76.7784 15.6159 75.9118 16.4807C75.3219 17.0693 74.9467 17.8383 74.744 18.6403C74.2505 20.5934 74.5025 24.4186 74.5094 26.577L74.5327 30.2935L71.1918 30.3134L71.2142 23.2085C71.2207 21.6135 71.3992 19.7936 71.04 18.2421C70.8767 17.5365 70.5441 16.8644 70.0299 16.3485C69.2876 15.6037 68.284 15.3331 67.255 15.3415C66.1512 15.3503 65.0582 15.6847 64.2788 16.4956C63.6469 17.1529 63.2644 18.0403 63.0752 18.9245C62.7556 20.4176 62.8988 22.0891 62.9004 23.6122L62.9086 30.3049L59.5409 30.2907C59.7044 28.2883 59.5536 25.5938 59.5543 23.4997C59.5554 19.8427 59.6607 16.1427 59.5303 12.4904C60.6568 12.4912 61.7997 12.5326 62.9223 12.4334L62.9255 14.9008C64.1293 13.3979 65.2484 12.6033 67.1369 12.1531Z" fill="#649179"/>
<path d="M34.4292 12.1656C34.7991 12.1213 35.1908 12.1302 35.5633 12.1265C37.5972 12.1067 39.7101 12.6243 41.1909 14.0921C41.9231 14.8179 42.4164 15.7156 42.672 16.7109C43.1528 18.5836 42.9327 20.8034 42.9349 22.7274L42.9423 30.3031L39.633 30.2936L39.647 28.1248C38.6467 29.3444 37.4835 30.2511 35.9519 30.6879C34.07 31.2258 31.6091 31.0727 29.8985 30.0696C28.5113 29.2556 27.8282 28.1248 27.4052 26.6131C27.2915 25.35 27.4102 24.1483 28.1221 23.0602C29.6455 20.7297 32.7306 20.3865 35.2345 19.9554C36.7099 19.701 38.1864 19.4637 39.647 19.1328C39.6187 18.3316 39.5021 17.551 39.0816 16.8527C38.5905 16.0372 37.7818 15.5061 36.8655 15.2836C35.6443 14.9871 34.0963 15.102 33.0225 15.7713C32.0138 16.4002 31.5447 17.3595 31.2712 18.4734C30.1339 18.4168 29.0063 18.4419 27.8686 18.4673C28.199 17.2006 28.5216 15.983 29.2953 14.9015C30.5616 13.131 32.3603 12.5131 34.4292 12.1656ZM31.7142 27.4157C32.9711 28.1693 34.5465 28.2799 35.9501 27.9187C37.2044 27.5963 38.4427 26.857 39.0909 25.7045C39.736 24.5587 39.6567 23.2776 39.6451 22.0126L39.5404 21.9304C38.4489 22.0221 37.3768 22.2461 36.2977 22.4277C34.6965 22.6962 32.4667 22.7652 31.3104 24.0623C30.8633 24.5643 30.7221 25.1373 30.7784 25.7981C30.8393 26.51 31.1942 26.9563 31.7142 27.4157Z" fill="#649179"/>
<path d="M8.5 5.34668C9.60228 5.39981 10.7002 5.34252 11.8012 5.38109C11.7163 8.60888 11.9507 11.8663 11.7473 15.087C12.0041 14.763 12.2503 14.4285 12.5226 14.1172C13.6053 12.8799 15.2274 12.2045 16.851 12.1332C18.7228 12.0509 20.573 12.477 21.9811 13.7703C22.9221 14.6346 23.5608 15.7337 23.8859 16.9665C24.3035 18.5502 24.1783 20.3273 24.1776 21.9535C24.1765 24.7245 24.0646 27.5391 24.2 30.3054L20.9346 30.2922C20.8617 27.4672 20.9127 24.629 20.9053 21.8022C20.9331 20.0276 21.0652 17.9222 19.7389 16.5467C18.9185 15.6957 17.801 15.3358 16.6404 15.3196C15.3522 15.3015 14.1106 15.6862 13.1925 16.6204C12.6452 17.1826 12.2554 17.8787 12.0622 18.6391C11.6396 20.2545 11.8065 22.1652 11.8047 23.832C11.7997 25.9848 11.8103 28.1385 11.8364 30.2922L8.53886 30.2988C8.50057 21.9922 8.70695 13.6487 8.5 5.34668Z" fill="#649179"/>
<path d="M120.106 12.1566C120.42 12.1423 120.734 12.1329 121.048 12.1284C122.862 12.1106 124.681 12.6055 125.993 13.9121C126.848 14.7623 127.378 15.8592 127.655 17.0226C128.121 18.9822 127.947 21.1093 127.945 23.1127L127.947 30.3055L124.579 30.3018C124.612 28.6803 124.58 27.0514 124.59 25.428C124.602 23.367 124.862 20.1885 124.318 18.2752C124.017 17.2207 123.396 16.2514 122.401 15.7352C121.174 15.0981 119.529 15.2566 118.251 15.6643C117.735 15.9312 117.285 16.2069 116.865 16.6208C116.194 17.2827 115.894 18.0631 115.698 18.9641C115.356 20.5402 115.482 22.2561 115.483 23.8605L115.495 30.3121C114.385 30.2913 113.274 30.3055 112.164 30.3055C112.256 24.3748 112.176 18.4274 112.18 12.4942L115.49 12.49C115.496 13.338 115.484 14.1867 115.482 15.0347C116.684 13.2804 118.083 12.6042 120.106 12.1566Z" fill="#649179"/>
<path d="M54.7509 12.1526C55.4122 12.1231 56.0772 12.1332 56.7392 12.1309C56.7621 13.3369 56.7446 14.5462 56.743 15.7525C56.4928 15.7428 56.2424 15.7347 55.992 15.7282C54.4849 15.6913 52.8535 15.8866 51.7301 17.0065C51.1354 17.5994 50.7737 18.3744 50.5815 19.1838C50.2169 20.7182 50.3355 22.4171 50.3348 23.9847L50.3554 30.303C49.7002 30.3049 47.5873 30.5422 47.0419 30.1735L47.0138 29.8388C46.8888 24.0735 46.9851 18.2765 47.0211 12.5093L50.3981 12.49C50.3039 13.4345 50.3516 14.3957 50.3722 15.3434C51.6439 13.4571 52.4548 12.7127 54.7509 12.1526Z" fill="#649179"/>
<path d="M131.816 12.4992C132.927 12.507 134.038 12.507 135.149 12.499V30.3056C134.033 30.2934 132.916 30.299 131.8 30.3246C131.874 24.3854 131.817 18.4389 131.816 12.4992Z" fill="#649179"/>
<path d="M132.795 5.34226C133.204 5.31872 133.655 5.26956 134.057 5.36562C134.597 5.49495 135.105 5.88844 135.365 6.37741C135.621 6.86601 135.659 7.43942 135.47 7.95751C135.215 8.64116 134.721 8.99248 134.084 9.28641C133.655 9.31298 133.227 9.33473 132.811 9.20464C132.269 9.03531 131.784 8.64494 131.534 8.13223C131.311 7.68372 131.278 7.16496 131.442 6.69205C131.681 6.01295 132.177 5.65076 132.795 5.34226Z" fill="#649179"/>
</svg>
