<svg xmlns="http://www.w3.org/2000/svg">
<symbol id="alert" viewBox="0 0 41 40">
<path d="M20.5 28.4444V30.5556M20.5 9.44444V22.1111M39.5 20C39.5 30.4934 30.9934 39 20.5 39C10.0066 39 1.5 30.4934 1.5 20C1.5 9.50659 10.0066 1 20.5 1C30.9934 1 39.5 9.50659 39.5 20Z" stroke-width="2" stroke-linecap="round"/>
</symbol>
<symbol id="arrow" viewBox="0 0 25 25">
<path d="M5.37497 19.5293L19.6195 5.2793M19.6195 5.2793H11.9479M19.6195 5.2793L19.6195 12.9509" stroke-linecap="round" stroke-linejoin="round"/>
</symbol>
<symbol id="camera" viewBox="0 0 72 61">
<path d="M49.2452 34.9303C49.2452 41.0472 43.3151 46.006 36 46.006C28.6849 46.006 22.7548 41.0472 22.7548 34.9303C22.7548 28.8133 28.6849 23.8545 36 23.8545C43.3151 23.8545 49.2452 28.8133 49.2452 34.9303Z" stroke-width="2"/>
<path d="M1.5625 50.2031L1.5625 23.2082C1.5625 18.6716 5.96049 14.994 11.3857 14.994C15.1064 14.994 18.5078 13.2361 20.1718 10.4533L22.3981 6.73002C24.2402 3.6492 28.0058 1.70311 32.125 1.70313L39.8751 1.70315C43.9942 1.70316 47.7598 3.64925 49.6019 6.73006L51.8282 10.4533C53.4922 13.2362 56.8936 14.994 60.6143 14.994C66.0395 14.994 70.4375 18.6717 70.4375 23.2082V50.2031C70.4375 55.2254 65.5686 59.2968 59.5625 59.2968H12.4375C6.4314 59.2968 1.5625 55.2254 1.5625 50.2031Z" stroke-width="2"/>
</symbol>
<symbol id="close" viewBox="0 0 24 24">
<path d="M5.25 5.25L12 12M12 12L5.25 18.75M12 12L18.75 18.75M12 12L18.75 5.25" stroke-linecap="round" stroke-linejoin="round"/>
</symbol>
<symbol id="crossed-eye" viewBox="0 0 24 25">
<path d="M14.4107 17.4874C13.5963 17.8656 12.6923 18.1118 11.7405 18.1118C8.15598 18.1118 5.25017 14.6207 5.25017 13.7336C5.25017 13.2308 6.18382 11.8913 7.64549 10.8252M17.452 15.1367C17.9487 14.5391 18.2308 14.01 18.2308 13.7336C18.2308 12.8466 15.325 9.35549 11.7405 9.35549C13.3177 9.35549 14.5962 10.6238 14.5962 12.1884M11.7405 15.0213C10.1633 15.0213 8.88472 13.753 8.88472 12.1884M18.75 9.35557C16.7732 7.7195 14.4653 6.7802 12.0001 6.7802C11.1116 6.7802 10.2435 6.90222 9.40397 7.13492M5.25017 9.35557C5.43341 9.20392 5.6195 9.05825 5.8083 8.91876M5.25 5.75L17.7856 18.4061" stroke-linecap="round"/>
</symbol>
<symbol id="exit" viewBox="0 0 24 24">
<path d="M9.80769 4.875L7.06731 4.875C5.85653 4.875 4.875 5.85653 4.875 7.06731L4.875 16.9327C4.875 18.1435 5.85653 19.125 7.06731 19.125H9.80769M8.625 12L19.5865 12M19.5865 12L16.2981 15.2885M19.5865 12L16.2981 8.71154" stroke-linecap="round" stroke-linejoin="round"/>
</symbol>
<symbol id="flag" viewBox="0 0 25 25">
<path d="M12.4971 4.4043C13.7607 4.4043 14.9206 4.52521 15.8398 4.66504C17.0036 4.84206 17.916 5.6396 18.1758 6.75391C18.4894 8.09915 18.7969 10.1457 18.7441 12.8945C18.6859 15.9276 18.2432 18.1159 17.8164 19.5439C17.701 19.9299 17.4339 20.1286 17.1318 20.1797C16.816 20.233 16.4263 20.1279 16.1094 19.8125C15.5326 19.2383 14.8719 18.6181 14.2627 18.1387C13.9586 17.8994 13.6558 17.686 13.375 17.5303C13.1101 17.3834 12.7995 17.25 12.4971 17.25C12.1993 17.25 11.8783 17.3812 11.5977 17.5254C11.2986 17.679 10.9675 17.8898 10.6289 18.1289C9.95038 18.608 9.19895 19.2287 8.53711 19.8037C8.18779 20.1072 7.77644 20.179 7.45215 20.0908C7.13917 20.0056 6.87522 19.7652 6.79395 19.3467C6.51488 17.9087 6.25 15.7848 6.25 12.9043C6.25 10.0308 6.54615 8.00399 6.84082 6.69922C7.08505 5.61786 7.9671 4.84804 9.10156 4.67285C10.0289 4.52964 11.2091 4.4043 12.4971 4.4043Z" stroke-linecap="round" stroke-linejoin="round"/>
</symbol>
<symbol id="menu" viewBox="0 0 32 30">
<path d="M7.5 6.8335H24.5M7.5 18.8335H24.5M7.5 12.8335H24.5" stroke-width="1.33333" stroke-linecap="round"/>
</symbol>
</svg>
